<?xml version="1.0" encoding="UTF-8"?>
<svg width="15px" height="13px" viewBox="0 0 15 13" version="1.1" xmlns="http://www.w3.org/2000/svg" xmlns:xlink="http://www.w3.org/1999/xlink">
    <!-- Generator: Sketch 50.2 (55047) - http://www.bohemiancoding.com/sketch -->
    <title>resources / icons / refresh</title>
    <desc>Created with Sketch.</desc>
    <defs></defs>
    <g id="CI-june-update" stroke="none" stroke-width="1" fill="none" fill-rule="evenodd">
        <g id="jun.10.30-pipeline" transform="translate(-289.000000, -308.000000)" fill="#047CC0">
            <g id="refresh" transform="translate(289.000000, 305.000000)">
                <g id="resources-/-icons-/-refresh" transform="translate(0.000000, 2.000000)">
                    <path d="M10.8560038,11.0359863 L11.5215646,11.4328956 C10.5003522,12.4769865 9.07585195,13.125 7.5,13.125 C4.39339828,13.125 1.875,10.6066017 1.875,7.5 C1.875,6.91864369 1.9631938,6.35788615 2.12693194,5.83037682 L2.79259251,6.22734559 C2.68179782,6.63830397 2.625,7.06499445 2.625,7.5 C2.625,10.1923882 4.80761184,12.375 7.5,12.375 C8.76828733,12.375 9.95768901,11.8892796 10.8560038,11.0359863 Z M11.5215646,11.4328956 C10.5003522,12.4769865 9.07585195,13.125 7.5,13.125 C4.39339828,13.125 1.875,10.6066017 1.875,7.5 C1.875,6.91864369 1.9631938,6.35788615 2.12693194,5.83037682 L2.79259251,6.22734559 C2.68179782,6.63830397 2.625,7.06499445 2.625,7.5 C2.625,10.1923882 4.80761184,12.375 7.5,12.375 C8.76828733,12.375 9.95768901,11.8892796 10.8560038,11.0359863 L11.5215646,11.4328956 Z M4.26884579,3.84950026 C5.15241803,3.06639995 6.2906056,2.625 7.5,2.625 C10.1923882,2.625 12.375,4.80761184 12.375,7.5 C12.375,7.87042558 12.3338181,8.23487517 12.253117,8.58883859 L12.9260142,8.98825984 C13.0557368,8.51421968 13.125,8.01519848 13.125,7.5 C13.125,4.39339828 10.6066017,1.875 7.5,1.875 C5.98382188,1.875 4.6077498,2.47486525 3.59616942,3.4502101 L4.26884579,3.84950026 Z M7.5,2.625 C10.1923882,2.625 12.375,4.80761184 12.375,7.5 C12.375,7.87042558 12.3338181,8.23487517 12.253117,8.58883859 L12.9260142,8.98825984 C13.0557368,8.51421968 13.125,8.01519848 13.125,7.5 C13.125,4.39339828 10.6066017,1.875 7.5,1.875 C5.98382188,1.875 4.6077498,2.47486525 3.59616942,3.4502101 L4.26884579,3.84950026 C5.15241803,3.06639995 6.2906056,2.625 7.5,2.625 Z" id="circle" fill-rule="nonzero"></path>
                    <polygon id="Combined-Shape" fill-rule="evenodd" transform="translate(12.750000, 8.410714) scale(1, -1) rotate(-90.000000) translate(-12.750000, -8.410714) " points="11.4642857 9.70612013 11.4642857 10.6607143 14.0357143 8.41071429 11.4642857 6.16071429 11.4642857 7.11530844 12.9447495 8.41071429"></polygon>
                    <polygon id="Combined-Shape" fill-rule="evenodd" transform="translate(2.250000, 6.535714) scale(-1, 1) rotate(-90.000000) translate(-2.250000, -6.535714) " points="0.964285714 7.83112013 0.964285714 8.78571429 3.53571429 6.53571429 0.964285714 4.28571429 0.964285714 5.24030844 2.44474954 6.53571429"></polygon>
                </g>
            </g>
        </g>
    </g>
</svg>