<svg id="Layer_1" data-name="Layer 1" xmlns="http://www.w3.org/2000/svg" viewBox="0 0 932.39 310.77"><defs><style>.cls-1{fill:#fbfcfc}.cls-2{fill:#ff5c49}.cls-10,.cls-11,.cls-12,.cls-14,.cls-3,.cls-6,.cls-7,.cls-9{fill:#272727}.cls-3,.cls-5{opacity:.14}.cls-4{fill:#ffaa9d}.cls-7{opacity:.08}.cls-9{opacity:.1}.cls-10{opacity:.5}.cls-11{opacity:.09}.cls-12{opacity:.12}.cls-13,.cls-17{fill:none;stroke:#ffaa9d;stroke-miterlimit:10}.cls-13{stroke-width:3px}.cls-14{opacity:.15}.cls-17{stroke-width:2px}.cls-23{fill:#1d364d}</style></defs><path id="_Rectangle_" data-name="&lt;Rectangle&gt;" class="cls-1" d="M0 210.88h932.39v17.84H0z"/><g id="_Group_" data-name="&lt;Group&gt;"><path id="_Rectangle_2" data-name="&lt;Rectangle&gt;" class="cls-2" d="M217 130.71h31.29v86.38H217z"/><path id="_Path_" data-name="&lt;Path&gt;" class="cls-2" d="M233.26 119.94v-.53h-.59v11.3h.59v-7.84c1.06-.13 2.72.57 3.86.21v-2.88c-1.12.49-2.86-.36-3.86-.26z"/><path id="_Rectangle_3" data-name="&lt;Rectangle&gt;" class="cls-3" d="M217 130.71h15.64v86.38H217z"/></g><g id="_Group_2" data-name="&lt;Group&gt;"><path id="_Path_2" data-name="&lt;Path&gt;" class="cls-4" d="M531.19 216.7h54.15v-85.26s0-4-27.08-4-27.08 4-27.08 4z"/><g id="_Group_3" data-name="&lt;Group&gt;" class="cls-5"><path id="_Path_3" data-name="&lt;Path&gt;" class="cls-6" d="M531.19 216.7h27.08v-89.26c-27.08 0-27.08 4-27.08 4z"/></g></g><g id="_Group_4" data-name="&lt;Group&gt;"><path id="_Rectangle_4" data-name="&lt;Rectangle&gt;" class="cls-2" d="M455.37 125.24h52.35v94.47h-52.35z"/><path id="_Rectangle_5" data-name="&lt;Rectangle&gt;" class="cls-7" d="M455.37 125.24h26.17v94.47h-26.17z"/></g><g id="_Group_5" data-name="&lt;Group&gt;"><path id="_Rectangle_6" data-name="&lt;Rectangle&gt;" class="cls-1" d="M167.16 76.76h1.19v15.88h-1.19z"/><path id="_Rectangle_7" data-name="&lt;Rectangle&gt;" class="cls-1" d="M150 117.9h2.71v97.02H150z"/><path id="_Rectangle_8" data-name="&lt;Rectangle&gt;" class="cls-2" d="M138.33 166.4h14.38v51.69h-14.38z"/><path id="_Rectangle_9" data-name="&lt;Rectangle&gt;" class="cls-2" d="M161.57 95.76h12.36v12.76h-12.36z"/><path id="_Path_4" data-name="&lt;Path&gt;" class="cls-1" d="M175.64 107.87v-3.52h-15.78v3.52h-2.94v6.73h21.66v-6.73h-2.94z"/><path id="_Rectangle_10" data-name="&lt;Rectangle&gt;" class="cls-4" d="M152.71 114.6h30.09v103.49h-30.09z"/><path id="_Rectangle_11" data-name="&lt;Rectangle&gt;" class="cls-2" d="M162.07 114.6h11.36v103.49h-11.36z"/><path id="_Rectangle_12" data-name="&lt;Rectangle&gt;" class="cls-4" d="M164.97 92.63h5.57v17.79h-5.57z"/><path id="_Rectangle_13" data-name="&lt;Rectangle&gt;" class="cls-1" d="M182.79 117.9h2.71v97.02h-2.71z"/><path id="_Rectangle_14" data-name="&lt;Rectangle&gt;" opacity=".2" fill="#272727" d="M138.33 166.4h7.19v51.69h-7.19z"/><g id="_Group_6" data-name="&lt;Group&gt;"><path id="_Path_5" data-name="&lt;Path&gt;" class="cls-3" d="M164.97 92.63v3.12h-3.4v8.6h-1.71v3.52h-2.94v6.73h-4.21v103.49h15.04V92.63h-2.78z"/><path id="_Path_6" data-name="&lt;Path&gt;" class="cls-3" d="M150 117.9h2.71v48.51H150z"/></g></g><path id="_Path_7" data-name="&lt;Path&gt;" class="cls-1" d="M660.21 209.15s38.6-104.48 121.12-133.73c0 0-1 85.41-4.32 135z"/><g id="_Group_7" data-name="&lt;Group&gt;"><path id="_Path_8" data-name="&lt;Path&gt;" class="cls-9" d="M660.21 209.15l12.28.13c19.59-55.16 61.84-106.5 61.84-106.5-50.27 41.83-74.12 106.37-74.12 106.37z"/></g><path id="_Path_9" data-name="&lt;Path&gt;" class="cls-2" d="M703.23 217.64s26.91-103.22 76.41-139.15c0 0-1 83.57-4.22 132.06z"/><path id="_Path_10" data-name="&lt;Path&gt;" class="cls-10" d="M703.23 217.64s26.91-103.22 76.41-139.15c0 0-29.24 60-43 135.87z"/><path id="_Path_11" data-name="&lt;Path&gt;" class="cls-1" d="M746.86 128l14.48 8.5a137.79 137.79 0 0 1 69.11-24.37s-.55 49-.55 99.05l-122.7-.31s32.7-82.47 39.66-82.87z"/><path id="_Path_12" data-name="&lt;Path&gt;" class="cls-11" d="M746.86 128l14.48 8.5A137 137 0 0 1 809 115.37s-57 38-60 94.72l-41.79.78S739.9 128.4 746.86 128z"/><path id="_Path_13" data-name="&lt;Path&gt;" class="cls-11" d="M746.86 128l14.48 8.5c-30.33 35.34-32.72 74-32.72 74l-21.42.4s32.7-82.5 39.66-82.9z"/><path id="_Path_14" data-name="&lt;Path&gt;" class="cls-2" d="M752 217.64s36.36-87.41 76-102.2c0 0-.54 47.44-.54 95.95z"/><path id="_Path_15" data-name="&lt;Path&gt;" class="cls-10" d="M752 217.64s36.36-87.41 76-102.2c0 0-45.43 59.39-55 100.46z"/><path id="_Path_16" data-name="&lt;Path&gt;" class="cls-1" d="M758.09 208.87s26.36-46.78 44.43-66l20.48 2.42c19.75-8.19 45.68-15 74.54-12.15 0 0-8.9 29.18-22.65 78.78z"/><path id="_Path_17" data-name="&lt;Path&gt;" class="cls-12" d="M758.09 208.87s26.36-46.78 44.43-66l20.48 2.42s-23.2 5.47-64.91 63.58z"/><path id="_Path_18" data-name="&lt;Path&gt;" class="cls-2" d="M809 209s44.84-56.92 83.36-71.29c0 0-8.38 27.47-21.33 74.17z"/><path id="_Path_19" data-name="&lt;Path&gt;" class="cls-10" d="M809 209s44.84-56.92 83.36-71.29c0 0-29.11 45.17-39.58 73.32z"/><path id="_Path_20" data-name="&lt;Path&gt;" class="cls-13" d="M757 206.41c11.31-24.09 40.14-79.47 70.95-91 0 0-.13 11.18-.26 28.23"/><path id="_Path_21" data-name="&lt;Path&gt;" class="cls-13" d="M813.21 203.93c12-14.3 47.7-54.44 79.17-66.18 0 0-7.45 24.42-19.16 66.36"/><path id="_Path_22" data-name="&lt;Path&gt;" class="cls-13" d="M707.2 204.11c9.16-29.19 34-97.71 72.44-125.62 0 0-.24 20.82-.89 47.7"/><g id="_Group_8" data-name="&lt;Group&gt;"><path id="_Rectangle_15" data-name="&lt;Rectangle&gt;" class="cls-2" d="M588.35 134.99h25.27v70.1h-25.27z"/><path id="_Rectangle_16" data-name="&lt;Rectangle&gt;" class="cls-3" d="M588.35 134.99h12.64v70.1h-12.64z"/></g><g id="_Group_9" data-name="&lt;Group&gt;"><path id="_Rectangle_17" data-name="&lt;Rectangle&gt;" class="cls-4" d="M512 147.19h22.97v75.51H512z"/><path id="_Rectangle_18" data-name="&lt;Rectangle&gt;" class="cls-14" d="M512 147.19h11.49v75.51H512z"/></g><path id="_Rectangle_19" data-name="&lt;Rectangle&gt;" fill="#ae97f4" d="M398.21 175.38h24.07v39.71h-24.07z"/><path id="_Path_23" data-name="&lt;Path&gt;" class="cls-1" d="M558.41 211.92s4.34-39.11 24.6-58.84C593.81 142.56 610.5 142 610.5 142c20.23-27.57 43.48-55.33 62-66.57 0 0 36.42 85.41 33.11 135z"/><path id="_Path_24" data-name="&lt;Path&gt;" class="cls-7" d="M558.41 211.92s4.34-39.11 24.6-58.84C593.81 142.56 610.5 142 610.5 142c-20.41 35.5-25.06 69.65-25.06 69.65z"/><path id="_Path_25" data-name="&lt;Path&gt;" class="cls-2" d="M594.39 217.64S621.3 114.42 670.8 78.49c0 0 35.64 83.57 32.39 132.06z"/><g id="_Group_10" data-name="&lt;Group&gt;"><path id="_Path_26" data-name="&lt;Path&gt;" class="cls-10" d="M670.8 78.49c-49.5 35.92-76.41 139.15-76.41 139.15l1.89-.12 28-39.22 49.26-93.1c-1.7-4.26-2.74-6.71-2.74-6.71z"/></g><path id="_Path_27" data-name="&lt;Path&gt;" class="cls-1" d="M630.4 136.5l7.06 4.8c14-14.74 31.72-24.9 57.54-29.17 0 0 39.59 49 39.59 99.05L601 210.45s24.12-70.16 29.4-73.95z"/><path id="_Path_28" data-name="&lt;Path&gt;" class="cls-12" d="M630.4 136.5l7.06 4.8c-15.15 16-23.83 69.22-23.83 69.22l-12.63-.07s24.12-70.16 29.4-73.95z"/><path id="_Path_29" data-name="&lt;Path&gt;" class="cls-2" d="M620.54 217.64s32.36-87.41 72-102.2c0 0 38.47 47.44 38.47 95.95z"/><path id="_Path_30" data-name="&lt;Path&gt;" class="cls-10" d="M620.54 217.64s32.36-87.41 72-102.2l-32.33 100z"/><path id="_Path_31" data-name="&lt;Path&gt;" class="cls-1" d="M672.47 137.75l9.28 7.24c16-7.88 32-12.84 56.83-11.86 0 0 22.6 28.7 22.6 78.78l-138.19 3s37.45-74.07 49.48-77.16z"/><path id="_Path_32" data-name="&lt;Path&gt;" d="M672.47 137.75l9.28 7.24c-23.63 12.32-52.51 69.75-52.51 69.75l-6.25.13s37.45-74.03 49.48-77.12z" opacity=".07" fill="#272727"/><path id="_Path_33" data-name="&lt;Path&gt;" class="cls-2" d="M650 209s45.6-57.88 84.77-72.49c0 0 21.63 27.48 21.63 75.42z"/><path id="_Path_34" data-name="&lt;Path&gt;" class="cls-10" d="M650 209s45.6-57.88 84.77-72.49c0 0-29.44 27.09-41.28 73.69z"/><path id="_Path_35" data-name="&lt;Path&gt;" class="cls-17" d="M650 209s45.6-57.88 84.77-72.49c0 0 21.63 27.48 21.63 75.42"/><path id="_Path_36" data-name="&lt;Path&gt;" class="cls-17" d="M620.54 217.64s32.36-87.41 72-102.2a193.46 193.46 0 0 1 13.6 19.89"/><path id="_Path_37" data-name="&lt;Path&gt;" class="cls-17" d="M596.3 210.88c8.08-26.59 34.28-103.2 74.5-132.38 0 0 6.39 15 13.52 36"/><g id="_Group_11" data-name="&lt;Group&gt;"><path id="_Rectangle_20" data-name="&lt;Rectangle&gt;" class="cls-2" d="M291.71 87.73h43.32v132.98h-43.32z"/><path id="_Rectangle_21" data-name="&lt;Rectangle&gt;" class="cls-3" d="M291.71 87.73h21.66v132.98h-21.66z"/></g><g id="_Group_12" data-name="&lt;Group&gt;"><path id="_Rectangle_22" data-name="&lt;Rectangle&gt;" class="cls-2" d="M255.07 76.59h28.75v14.75h-28.75z"/><path id="_Path_38" data-name="&lt;Path&gt;" class="cls-4" d="M247.18 91.34h44.53V217.1h-44.53z"/><path id="_Rectangle_23" data-name="&lt;Rectangle&gt;" class="cls-1" d="M268.85 52h1.19v27.05h-1.19z"/><path id="_Path_39" data-name="&lt;Path&gt;" class="cls-14" d="M247.18 91.34h22.26V217.1h-22.26z"/><path id="_Rectangle_24" data-name="&lt;Rectangle&gt;" class="cls-14" d="M249.33 71.37h20.14v19.97h-20.14z"/><path id="_Path_40" data-name="&lt;Path&gt;" class="cls-4" d="M249.33 71.37v19.97h2.81V74.15h34.61v17.19h2.8V71.37h-40.22z"/><g id="_Group_13" data-name="&lt;Group&gt;"><path id="_Rectangle_25" data-name="&lt;Rectangle&gt;" class="cls-1" d="M264.68 68.55h2.38v22.79h-2.38z"/><path id="_Rectangle_26" data-name="&lt;Rectangle&gt;" class="cls-1" d="M271.83 68.55h2.38v22.79h-2.38z"/></g></g><g id="_Group_14" data-name="&lt;Group&gt;"><path id="_Path_41" data-name="&lt;Path&gt;" class="cls-2" d="M178.09 221.7h31.07V109.64s-6.3 19.53-31.07 29.14z"/><path id="_Rectangle_27" data-name="&lt;Rectangle&gt;" class="cls-1" d="M193.03 98.66h1.19v32.05h-1.19z"/><g id="_Group_15" data-name="&lt;Group&gt;" class="cls-5"><path id="_Path_42" data-name="&lt;Path&gt;" class="cls-6" d="M178.09 138.78v82.92h15.54V130a59.78 59.78 0 0 1-15.54 8.78z"/></g></g><g id="_Group_16" data-name="&lt;Group&gt;"><path id="_Rectangle_28" data-name="&lt;Rectangle&gt;" class="cls-1" d="M231.69 151.1h34.9v71.6h-34.9z"/><path id="_Rectangle_29" data-name="&lt;Rectangle&gt;" class="cls-9" d="M231.69 151.1h17.45v71.6h-17.45z"/></g><g id="_Group_17" data-name="&lt;Group&gt;"><path id="_Rectangle_30" data-name="&lt;Rectangle&gt;" class="cls-4" d="M347.66 154.12h43.93v65.59h-43.93z"/><path id="_Rectangle_31" data-name="&lt;Rectangle&gt;" class="cls-4" d="M358.61 148.76h22.03v5.36h-22.03z"/><g id="_Group_18" data-name="&lt;Group&gt;"><path id="_Path_43" data-name="&lt;Path&gt;" class="cls-1" d="M375.66 135v-.53h-.59v14.3h.59v-10.85c1.06-.13 2.72.57 3.86.21v-2.88c-1.11.48-2.85-.36-3.86-.25z"/><path id="_Path_44" data-name="&lt;Path&gt;" class="cls-1" d="M364.21 135v-.53h-.59v14.3h.59v-10.85c1.06-.13 2.72.57 3.86.21v-2.88c-1.07.48-2.86-.36-3.86-.25z"/></g><path id="_Path_45" data-name="&lt;Path&gt;" opacity=".11" fill="#272727" d="M358.61 148.75v5.37h-10.94v65.59h21.96v-70.96h-11.02z"/></g><g id="_Group_19" data-name="&lt;Group&gt;"><path id="_Path_46" data-name="&lt;Path&gt;" class="cls-4" d="M349.02 168.36l-6.93-3.43h-6.7l-6.93 3.43h-3.07v34.58h26.7v-34.58h-3.07z"/><g id="_Group_20" data-name="&lt;Group&gt;" opacity=".15"><path id="_Path_47" data-name="&lt;Path&gt;" class="cls-6" d="M338.74 164.93h-3.35l-6.93 3.43h-3.07v34.58h13.35v-38.01z"/></g></g><g id="_Group_21" data-name="&lt;Group&gt;"><path id="_Rectangle_32" data-name="&lt;Rectangle&gt;" class="cls-4" d="M114.06 142.31h24.27v79.39h-24.27z"/><g id="_Group_22" data-name="&lt;Group&gt;"><path id="_Rectangle_33" data-name="&lt;Rectangle&gt;" class="cls-1" d="M136.14 83.59h1.19v58.72h-1.19z"/><path id="_Rectangle_34" data-name="&lt;Rectangle&gt;" class="cls-1" d="M115.06 83.59h1.19v58.72h-1.19z"/><path id="_Rectangle_35" data-name="&lt;Rectangle&gt;" class="cls-1" transform="rotate(90 126.19 108.94)" d="M125.6 97.8h1.19v22.27h-1.19z"/><path id="_Rectangle_36" data-name="&lt;Rectangle&gt;" class="cls-1" transform="rotate(90 126.195 98.605)" d="M125.6 87.47h1.19v22.27h-1.19z"/><g id="_Group_23" data-name="&lt;Group&gt;"><path id="_Path_48" data-name="&lt;Path&gt;" class="cls-1" d="M127.77 108.34l9.56-9.56-.84-.84-10.3 10.3-10.29-10.3-.84.84 9.56 9.56h3.15z"/></g><path id="_Rectangle_37" data-name="&lt;Rectangle&gt;" class="cls-1" transform="rotate(90 126.195 119.345)" d="M125.6 108.2h1.19v22.27h-1.19z"/><g id="_Group_24" data-name="&lt;Group&gt;"><path id="_Path_49" data-name="&lt;Path&gt;" class="cls-1" d="M127.77 118.75l9.56-9.56-.84-.85-10.3 10.3-10.29-10.3-.84.85 9.56 9.56h3.15z"/></g><path id="_Rectangle_38" data-name="&lt;Rectangle&gt;" class="cls-1" transform="rotate(90 126.195 129.745)" d="M125.6 118.61h1.19v22.27h-1.19z"/><g id="_Group_25" data-name="&lt;Group&gt;"><path id="_Path_50" data-name="&lt;Path&gt;" class="cls-1" d="M127.77 129.15l9.56-9.56-.84-.84-10.3 10.29-10.29-10.29-.84.84 9.56 9.56h3.15z"/></g><path id="_Rectangle_39" data-name="&lt;Rectangle&gt;" class="cls-1" transform="rotate(90 126.195 140.145)" d="M125.6 129.01h1.19v22.27h-1.19z"/><g id="_Group_26" data-name="&lt;Group&gt;"><path id="_Path_51" data-name="&lt;Path&gt;" class="cls-1" d="M127.77 139.55l9.56-9.56-.84-.84-10.3 10.3-10.29-10.3-.84.84 9.56 9.56h3.15z"/></g></g><path id="_Rectangle_40" data-name="&lt;Rectangle&gt;" opacity=".16" fill="#272727" d="M114.06 142.31h12.14v79.39h-12.14z"/></g><g id="_Group_27" data-name="&lt;Group&gt;"><path id="_Rectangle_41" data-name="&lt;Rectangle&gt;" class="cls-1" d="M310.16 187.2h48.46v35.5h-48.46z"/><path id="_Rectangle_42" data-name="&lt;Rectangle&gt;" class="cls-11" d="M310.16 187.2h24.23v35.5h-24.23z"/></g><g id="_Group_28" data-name="&lt;Group&gt;"><path id="_Path_52" data-name="&lt;Path&gt;" class="cls-4" d="M422.28 219.09h-24.07v-77.62s0-3 12-3c11.67 0 12 3 12 3z"/><g id="_Group_29" data-name="&lt;Group&gt;" opacity=".19"><path id="_Path_53" data-name="&lt;Path&gt;" class="cls-6" d="M410.24 219.09h-12v-77.62s0-3 12-3z"/></g></g><g id="_Group_30" data-name="&lt;Group&gt;"><path id="_Rectangle_43" data-name="&lt;Rectangle&gt;" class="cls-1" d="M416.36 182.39h45.73v40.31h-45.73z"/><path id="_Rectangle_44" data-name="&lt;Rectangle&gt;" class="cls-7" d="M416.36 182.39h22.87v40.31h-22.87z"/></g><path id="_Path_54" data-name="&lt;Path&gt;" class="cls-4" d="M751.12 222.31h145.4l-10-21.91h-125.4l-10 21.91z"/><g id="_Group_31" data-name="&lt;Group&gt;"><path id="_Rectangle_45" data-name="&lt;Rectangle&gt;" class="cls-2" d="M35.37 171.17h40.92v47.54H35.37z"/><path id="_Rectangle_46" data-name="&lt;Rectangle&gt;" opacity=".17" fill="#272727" d="M35.37 171.17h20.46v47.54H35.37z"/></g><g id="_Group_32" data-name="&lt;Group&gt;"><path id="_Rectangle_47" data-name="&lt;Rectangle&gt;" class="cls-4" d="M73.88 163.13h31.29v59.57H73.88z"/><path id="_Rectangle_48" data-name="&lt;Rectangle&gt;" class="cls-3" d="M73.88 163.13h15.64v59.57H73.88z"/></g><g id="_Group_33" data-name="&lt;Group&gt;"><path id="_Rectangle_49" data-name="&lt;Rectangle&gt;" class="cls-1" d="M55.83 192.92H81.7v29.78H55.83z"/><path id="_Rectangle_50" data-name="&lt;Rectangle&gt;" class="cls-3" d="M55.83 192.92h12.94v29.4H55.83z"/></g><g id="_Group_34" data-name="&lt;Group&gt;"><path id="_Rectangle_51" data-name="&lt;Rectangle&gt;" class="cls-2" d="M391.59 187.2h19.25v35.5h-19.25z"/><path id="_Rectangle_52" data-name="&lt;Rectangle&gt;" class="cls-11" d="M391.59 187.2h9.63v35.5h-9.63z"/></g><path id="_Path_55" data-name="&lt;Path&gt;" class="cls-4" d="M638.89 222.31h139.94l-10-18.2H648.89l-10 18.2z"/><path id="_Path_56" data-name="&lt;Path&gt;" class="cls-2" d="M909.5 222.31H544.49l16.84-13.16H899.5l10 13.16z"/><g id="_Group_35" data-name="&lt;Group&gt;"><path id="_Rectangle_53" data-name="&lt;Rectangle&gt;" class="cls-6" d="M35.93 202.28h5.32v22.44h-5.32z"/><path id="_Rectangle_54" data-name="&lt;Rectangle&gt;" class="cls-6" d="M56.58 204.51h5.32v22.44h-5.32z"/><path id="_Rectangle_55" data-name="&lt;Rectangle&gt;" class="cls-6" d="M84.38 204.51h5.32v22.44h-5.32z"/><path id="_Rectangle_56" data-name="&lt;Rectangle&gt;" class="cls-6" d="M106.06 204.51h5.32v22.44h-5.32z"/><path id="_Rectangle_57" data-name="&lt;Rectangle&gt;" class="cls-6" d="M113.58 202.5h5.32v22.44h-5.32z"/><path id="_Rectangle_58" data-name="&lt;Rectangle&gt;" class="cls-6" d="M156.22 205.87h5.32v22.44h-5.32z"/><path id="_Rectangle_59" data-name="&lt;Rectangle&gt;" class="cls-6" d="M174.27 202.66h5.32v22.44h-5.32z"/><path id="_Rectangle_60" data-name="&lt;Rectangle&gt;" class="cls-6" d="M193.32 205.87h5.32v22.44h-5.32z"/><path id="_Rectangle_61" data-name="&lt;Rectangle&gt;" class="cls-6" d="M229.23 203.87h5.32v22.44h-5.32z"/><path id="_Rectangle_62" data-name="&lt;Rectangle&gt;" class="cls-6" d="M264.09 205.48h5.32v22.44h-5.32z"/><path id="_Rectangle_63" data-name="&lt;Rectangle&gt;" class="cls-6" d="M293.12 206.42h5.32v22.44h-5.32z"/><path id="_Rectangle_64" data-name="&lt;Rectangle&gt;" class="cls-6" d="M386.2 205.87h5.32v22.44h-5.32z"/><path id="_Rectangle_65" data-name="&lt;Rectangle&gt;" class="cls-6" d="M399.84 215.05h5.32v22.44h-5.32z"/><path id="_Rectangle_66" data-name="&lt;Rectangle&gt;" class="cls-6" d="M413.71 205.87h5.32v22.44h-5.32z"/><path id="_Rectangle_67" data-name="&lt;Rectangle&gt;" class="cls-6" d="M458.32 203.66h5.32v22.44h-5.32z"/><path id="_Rectangle_68" data-name="&lt;Rectangle&gt;" class="cls-6" d="M470.7 211.09h5.32v22.44h-5.32z"/><path id="_Rectangle_69" data-name="&lt;Rectangle&gt;" class="cls-6" d="M505.23 203.66h5.32v22.44h-5.32z"/><path id="_Rectangle_70" data-name="&lt;Rectangle&gt;" class="cls-6" d="M526.12 206.42h5.32v22.44h-5.32z"/><path id="_Rectangle_71" data-name="&lt;Rectangle&gt;" class="cls-6" d="M542.07 203.66h5.32v22.44h-5.32z"/></g><g id="_Group_36" data-name="&lt;Group&gt;"><ellipse id="_Path_57" data-name="&lt;Path&gt;" class="cls-23" cx="41.24" cy="198.2" rx="14.59" ry="11.99"/><ellipse id="_Path_58" data-name="&lt;Path&gt;" class="cls-23" cx="59.24" cy="205.12" rx="9.53" ry="8.76"/><ellipse id="_Path_59" data-name="&lt;Path&gt;" class="cls-23" cx="92.86" cy="205.87" rx="12.47" ry="11.12"/><ellipse id="_Path_60" data-name="&lt;Path&gt;" class="cls-23" cx="116.24" cy="200.89" rx="15.82" ry="11.99"/><ellipse id="_Path_61" data-name="&lt;Path&gt;" class="cls-23" cx="158.87" cy="207.63" rx="16.95" ry="13.69"/><ellipse id="_Path_62" data-name="&lt;Path&gt;" class="cls-23" cx="172.28" cy="203.48" rx="9.97" ry="9.41"/><ellipse id="_Path_63" data-name="&lt;Path&gt;" class="cls-23" cx="195.98" cy="209.72" rx="13.18" ry="11"/><ellipse id="_Path_64" data-name="&lt;Path&gt;" class="cls-23" cx="182.79" cy="205.48" rx="9.77" ry="9"/><ellipse id="_Path_65" data-name="&lt;Path&gt;" class="cls-23" cx="236.72" cy="208.5" rx="11.94" ry="10.3"/><ellipse id="_Path_66" data-name="&lt;Path&gt;" class="cls-23" cx="266.75" cy="206.82" rx="15.46" ry="12.88"/><ellipse id="_Path_67" data-name="&lt;Path&gt;" class="cls-23" cx="224.77" cy="208.82" rx="7.12" ry="7.27"/><ellipse id="_Path_68" data-name="&lt;Path&gt;" class="cls-23" cx="108.71" cy="211.21" rx="10.48" ry="9.5"/><ellipse id="_Path_69" data-name="&lt;Path&gt;" class="cls-23" cx="80.46" cy="207.9" rx="9.24" ry="9.19"/><ellipse id="_Path_70" data-name="&lt;Path&gt;" class="cls-23" cx="289.79" cy="211.42" rx="10.06" ry="9.22"/><ellipse id="_Path_71" data-name="&lt;Path&gt;" class="cls-23" cx="302.54" cy="211.42" rx="7.95" ry="7.48"/><ellipse id="_Path_72" data-name="&lt;Path&gt;" class="cls-23" cx="388.86" cy="206.9" rx="9.35" ry="8.19"/><ellipse id="_Path_73" data-name="&lt;Path&gt;" class="cls-23" cx="402.5" cy="210.89" rx="10.91" ry="8.39"/><ellipse id="_Path_74" data-name="&lt;Path&gt;" class="cls-23" cx="416.36" cy="205.82" rx="14.79" ry="12.41"/><ellipse id="_Path_75" data-name="&lt;Path&gt;" class="cls-23" cx="544.73" cy="201.98" rx="13.54" ry="11.9"/><ellipse id="_Path_76" data-name="&lt;Path&gt;" class="cls-23" cx="528.68" cy="209.06" rx="11.94" ry="9.65"/><ellipse id="_Path_77" data-name="&lt;Path&gt;" class="cls-23" cx="507.89" cy="201.28" rx="18.23" ry="15.37"/><ellipse id="_Path_78" data-name="&lt;Path&gt;" class="cls-23" cx="460.98" cy="204.06" rx="12.38" ry="9.82"/><ellipse id="_Path_79" data-name="&lt;Path&gt;" class="cls-23" cx="473.36" cy="211.25" rx="11.27" ry="9.98"/><ellipse id="_Path_80" data-name="&lt;Path&gt;" class="cls-23" cx="30.94" cy="200.84" rx="10.3" ry="9.05"/></g><path id="_Rectangle_72" data-name="&lt;Rectangle&gt;" fill="#71cddd" d="M0 228.87h932.39v81.9H0z"/></svg>