<svg width="52" height="75" xmlns="http://www.w3.org/2000/svg"><g fill="none" fill-rule="evenodd"><path d="M-14-2h80v80h-80z"/><path d="M16.836 73.328s4.277-5.388 9.654-12.65c5.07-6.844 11.939-14.798 11.38-24.533-.553-9.604-8.964-18.47-14.72-24.648C16.88 4.771 12.659.675 12.659.675s6.4-2.335 12.77 1.68c9.616 6.059 25.817 20.968 26.51 33.036.795 13.826-14.909 30.48-24.613 37.215-4.378 3.037-10.49.722-10.49.722" fill="#40D5BB"/><path d="M2.974 62.785s3.043-3.82 6.872-8.97c3.61-4.853 8.499-10.493 8.1-17.396-.393-6.81-6.38-13.098-10.478-17.478C3.006 14.171 0 11.267 0 11.267s4.556-1.655 9.09 1.191c6.846 4.297 18.379 14.87 18.872 23.426.566 9.805-10.613 21.614-17.521 26.389-3.116 2.153-7.467.512-7.467.512" fill="#40D5BB"/></g></svg>