<svg id="Layer_1" data-name="Layer 1" xmlns="http://www.w3.org/2000/svg" viewBox="0 0 932.17 185.49"><defs><style>.cls-2{fill:#89a2f6}.cls-10,.cls-11,.cls-12,.cls-13,.cls-14,.cls-3,.cls-6,.cls-7{fill:#272727}.cls-3,.cls-5{opacity:.14}.cls-4{fill:#d1d7f4}.cls-7{opacity:.08}.cls-8{fill:#fbfcfc}.cls-10{opacity:.1}.cls-11{opacity:.5}.cls-12{opacity:.09}.cls-13{opacity:.12}.cls-14{opacity:.15}.cls-22{fill:#20214f}.cls-23{fill:#2e3f8f}</style></defs><path id="_Rectangle_" data-name="&lt;Rectangle&gt;" fill="#6f7878" d="M-.22 166.35h932.39v12.34H-.22z"/><g id="_Group_" data-name="&lt;Group&gt;"><path id="_Rectangle_2" data-name="&lt;Rectangle&gt;" class="cls-2" d="M216.78 78.71h31.29v86.38h-31.29z"/><path id="_Path_" data-name="&lt;Path&gt;" class="cls-2" d="M233 67.94v-.53h-.59v11.3h.59v-7.84c1.06-.13 2.72.57 3.86.21v-2.89c-1.07.5-2.86-.35-3.86-.25z"/><path id="_Rectangle_3" data-name="&lt;Rectangle&gt;" class="cls-3" d="M216.78 78.71h15.64v86.38h-15.64z"/></g><g id="_Group_2" data-name="&lt;Group&gt;"><path id="_Path_2" data-name="&lt;Path&gt;" class="cls-4" d="M531 164.7h54.15V79.44s0-4-27.08-4-27.08 4-27.08 4z"/><g id="_Group_3" data-name="&lt;Group&gt;" class="cls-5"><path id="_Path_3" data-name="&lt;Path&gt;" class="cls-6" d="M531 164.7h27V75.44c-27.08 0-27.08 4-27.08 4z"/></g></g><g id="_Group_4" data-name="&lt;Group&gt;"><path id="_Rectangle_4" data-name="&lt;Rectangle&gt;" class="cls-2" d="M455.16 73.23h52.35v94.47h-52.35z"/><path id="_Rectangle_5" data-name="&lt;Rectangle&gt;" class="cls-7" d="M455.16 73.23h26.17v94.47h-26.17z"/></g><g id="_Group_5" data-name="&lt;Group&gt;"><path id="_Rectangle_6" data-name="&lt;Rectangle&gt;" class="cls-8" d="M166.94 24.75h1.19v15.88h-1.19z"/><path id="_Rectangle_7" data-name="&lt;Rectangle&gt;" class="cls-8" d="M149.78 65.89h2.71v97.02h-2.71z"/><path id="_Rectangle_8" data-name="&lt;Rectangle&gt;" class="cls-2" d="M138.12 114.4h14.38v51.69h-14.38z"/><path id="_Rectangle_9" data-name="&lt;Rectangle&gt;" class="cls-2" d="M161.36 43.75h12.36v12.76h-12.36z"/><path id="_Path_4" data-name="&lt;Path&gt;" class="cls-8" d="M175.43 55.87v-3.52h-15.78v3.52h-2.94v6.73h21.66v-6.73h-2.94z"/><path id="_Rectangle_10" data-name="&lt;Rectangle&gt;" class="cls-4" d="M152.49 62.6h30.09v103.49h-30.09z"/><path id="_Rectangle_11" data-name="&lt;Rectangle&gt;" class="cls-2" d="M161.85 62.6h11.36v103.49h-11.36z"/><path id="_Rectangle_12" data-name="&lt;Rectangle&gt;" class="cls-4" d="M164.75 40.63h5.57v17.79h-5.57z"/><path id="_Rectangle_13" data-name="&lt;Rectangle&gt;" class="cls-8" d="M182.58 65.89h2.71v97.02h-2.71z"/><path id="_Rectangle_14" data-name="&lt;Rectangle&gt;" opacity=".2" fill="#272727" d="M138.12 114.4h7.19v51.69h-7.19z"/><g id="_Group_6" data-name="&lt;Group&gt;"><path id="_Path_5" data-name="&lt;Path&gt;" class="cls-3" d="M164.75 40.63v3.12h-3.39v8.6h-1.71v3.52h-2.94v6.73h-4.22v103.49h15.05V40.63h-2.79z"/><path id="_Path_6" data-name="&lt;Path&gt;" class="cls-3" d="M149.78 65.89h2.71v48.51h-2.71z"/></g></g><path id="_Path_7" data-name="&lt;Path&gt;" class="cls-8" d="M660 157.14S698.59 52.66 781.11 23.42c0 0-1 85.41-4.32 135z"/><g id="_Group_7" data-name="&lt;Group&gt;"><path id="_Path_8" data-name="&lt;Path&gt;" class="cls-10" d="M660 157.14l12.28.13c19.59-55.16 61.84-106.5 61.84-106.5C683.84 92.61 660 157.14 660 157.14z"/></g><path id="_Path_9" data-name="&lt;Path&gt;" class="cls-2" d="M703 165.64s26.92-103.22 76.42-139.15c0 0-1 83.57-4.22 132.06z"/><path id="_Path_10" data-name="&lt;Path&gt;" class="cls-11" d="M703 165.64s26.92-103.22 76.42-139.15c0 0-29.24 60-43 135.87z"/><path id="_Path_11" data-name="&lt;Path&gt;" class="cls-8" d="M746.64 76l14.48 8.5a137.79 137.79 0 0 1 69.11-24.37s-.55 49-.55 99.05l-122.68-.3S739.68 76.4 746.64 76z"/><path id="_Path_12" data-name="&lt;Path&gt;" class="cls-12" d="M746.64 76l14.48 8.5a137 137 0 0 1 47.67-21.13s-57 38-60 94.72l-41.79.78S739.68 76.4 746.64 76z"/><path id="_Path_13" data-name="&lt;Path&gt;" class="cls-12" d="M746.64 76l14.48 8.5c-30.33 35.34-32.72 74-32.72 74l-21.42.4s32.7-82.5 39.66-82.9z"/><path id="_Path_14" data-name="&lt;Path&gt;" class="cls-2" d="M751.78 165.64s36.36-87.41 76-102.2c0 0-.54 47.44-.54 95.95z"/><path id="_Path_15" data-name="&lt;Path&gt;" class="cls-11" d="M751.78 165.64s36.36-87.41 76-102.2c0 0-45.43 59.39-55 100.46z"/><path id="_Path_16" data-name="&lt;Path&gt;" class="cls-8" d="M757.88 156.86s26.36-46.78 44.43-66l20.51 2.38c19.75-8.19 45.68-15 74.54-12.15 0 0-8.9 29.18-22.65 78.78z"/><path id="_Path_17" data-name="&lt;Path&gt;" class="cls-13" d="M757.88 156.86s26.36-46.78 44.43-66l20.51 2.38s-23.24 5.52-64.94 63.62z"/><path id="_Path_18" data-name="&lt;Path&gt;" class="cls-2" d="M808.8 157s44.84-56.92 83.36-71.29c0 0-8.38 27.47-21.33 74.17z"/><path id="_Path_19" data-name="&lt;Path&gt;" class="cls-11" d="M808.8 157s44.84-56.92 83.36-71.29c0 0-29.11 45.17-39.58 73.32z"/><g id="_Group_8" data-name="&lt;Group&gt;"><path id="_Path_20" data-name="&lt;Path&gt;" class="cls-4" d="M758.18 155l-2.71-1.28c11.12-23.67 40.36-80 71.78-91.73l2-.76v2.19s-.13 11.17-.26 28.22h-3c.1-12.54.19-21.9.23-26-29.59 13.03-57.32 66.59-68.04 89.36z"/></g><g id="_Group_9" data-name="&lt;Group&gt;"><path id="_Path_21" data-name="&lt;Path&gt;" class="cls-4" d="M814.14 152.9l-2.3-1.93c40.68-48.44 69.36-62.73 79.8-66.62l2.85-1.06-.89 2.91c-.07.24-7.58 24.89-19.15 66.32l-2.89-.81c9.27-33.22 15.94-55.67 18.26-63.41-30.82 13.1-65.54 52.53-75.68 64.6z"/></g><g id="_Group_10" data-name="&lt;Group&gt;"><path id="_Path_22" data-name="&lt;Path&gt;" class="cls-4" d="M708.42 152.56l-2.86-.9c9-28.58 34-98.12 73-126.38l2.44-1.75v3c0 .21-.25 21.14-.89 47.72l-3-.07c.5-20.65.76-37.88.85-44.63-36.96 28.8-60.85 95.31-69.54 123.01z"/></g><g id="_Group_11" data-name="&lt;Group&gt;"><path id="_Rectangle_15" data-name="&lt;Rectangle&gt;" class="cls-2" d="M588.13 82.99h25.27v70.1h-25.27z"/><path id="_Rectangle_16" data-name="&lt;Rectangle&gt;" class="cls-3" d="M588.13 82.99h12.64v70.1h-12.64z"/></g><g id="_Group_12" data-name="&lt;Group&gt;"><path id="_Rectangle_17" data-name="&lt;Rectangle&gt;" class="cls-4" d="M511.78 95.19h22.97v75.51h-22.97z"/><path id="_Rectangle_18" data-name="&lt;Rectangle&gt;" class="cls-14" d="M511.78 95.19h11.49v75.51h-11.49z"/></g><path id="_Rectangle_19" data-name="&lt;Rectangle&gt;" fill="#ae97f4" d="M397.99 123.38h24.07v39.71h-24.07z"/><path id="_Path_23" data-name="&lt;Path&gt;" class="cls-8" d="M558.19 159.92s4.34-39.11 24.6-58.84C593.59 90.55 610.28 90 610.28 90c20.23-27.57 43.48-55.33 62-66.57 0 0 36.42 85.41 33.11 135z"/><path id="_Path_24" data-name="&lt;Path&gt;" class="cls-7" d="M558.19 159.92s4.34-39.11 24.6-58.84C593.59 90.55 610.28 90 610.28 90c-20.41 35.5-25.06 69.65-25.06 69.65z"/><path id="_Path_25" data-name="&lt;Path&gt;" class="cls-2" d="M594.17 165.64s26.91-103.22 76.41-139.15c0 0 35.64 83.57 32.39 132.06z"/><g id="_Group_13" data-name="&lt;Group&gt;"><path id="_Path_26" data-name="&lt;Path&gt;" class="cls-11" d="M670.58 26.49c-49.5 35.92-76.41 139.15-76.41 139.15l1.89-.12 28-39.22 49.26-93.1c-1.7-4.26-2.74-6.71-2.74-6.71z"/></g><path id="_Path_27" data-name="&lt;Path&gt;" class="cls-8" d="M630.18 84.5l7.06 4.8c14-14.74 31.72-24.9 57.54-29.17 0 0 39.59 49 39.59 99.05l-133.59-.74s24.12-70.15 29.4-73.94z"/><path id="_Path_28" data-name="&lt;Path&gt;" class="cls-13" d="M630.18 84.5l7.06 4.8c-15.15 16-23.83 69.22-23.83 69.22l-12.64-.07s24.13-70.16 29.41-73.95z"/><path id="_Path_29" data-name="&lt;Path&gt;" class="cls-2" d="M620.32 165.64s32.36-87.41 72-102.2c0 0 38.47 47.44 38.47 95.95z"/><path id="_Path_30" data-name="&lt;Path&gt;" class="cls-11" d="M620.32 165.64s32.36-87.41 72-102.2L660 163.4z"/><path id="_Path_31" data-name="&lt;Path&gt;" class="cls-8" d="M672.25 85.75l9.28 7.25c16-7.88 32-12.84 56.83-11.86 0 0 22.6 28.7 22.6 78.78l-138.19 3s37.45-74.08 49.48-77.17z"/><path id="_Path_32" data-name="&lt;Path&gt;" d="M672.25 85.75l9.28 7.25C657.9 105.31 629 162.74 629 162.74l-6.25.13s37.47-74.03 49.5-77.12z" opacity=".07" fill="#272727"/><path id="_Path_33" data-name="&lt;Path&gt;" class="cls-2" d="M649.8 157s45.6-57.88 84.77-72.49c0 0 21.63 27.48 21.63 75.42z"/><path id="_Path_34" data-name="&lt;Path&gt;" class="cls-11" d="M649.8 157s45.6-57.88 84.77-72.49c0 0-29.44 27.09-41.28 73.69z"/><g id="_Group_14" data-name="&lt;Group&gt;"><path id="_Path_35" data-name="&lt;Path&gt;" class="cls-4" d="M757.2 159.92h-2c0-43.28-17.94-70-21-74.21-38.28 14.77-83.2 71.29-83.61 71.9l-1.59-1.23c.46-.58 46.22-58.27 85.21-72.81l.68-.25.45.57c.24.27 21.86 28.3 21.86 76.03z"/></g><g id="_Group_15" data-name="&lt;Group&gt;"><path id="_Path_36" data-name="&lt;Path&gt;" class="cls-4" d="M621.26 166l-1.87-.69a383.89 383.89 0 0 1 21.2-45.69C658 87.94 675.3 68.73 692 62.51l.67-.25.45.56a196.39 196.39 0 0 1 13.67 20l-1.71 1A202.46 202.46 0 0 0 692 64.64C653.54 79.85 621.58 165.12 621.26 166z"/></g><g id="_Group_16" data-name="&lt;Group&gt;"><path id="_Path_37" data-name="&lt;Path&gt;" class="cls-4" d="M597 159.17l-1.91-.58c7.18-23.65 33.82-103.11 74.87-132.9l1-.74.49 1.15c.06.15 6.49 15.27 13.55 36l-1.89.64c-5.91-17.4-11.37-30.81-13-34.73C630.18 58 604.12 135.87 597 159.17z"/></g><g id="_Group_17" data-name="&lt;Group&gt;"><path id="_Rectangle_20" data-name="&lt;Rectangle&gt;" class="cls-2" d="M291.49 35.72h43.32V168.7h-43.32z"/><path id="_Rectangle_21" data-name="&lt;Rectangle&gt;" class="cls-3" d="M291.49 35.72h21.66V168.7h-21.66z"/></g><g id="_Group_18" data-name="&lt;Group&gt;"><path id="_Rectangle_22" data-name="&lt;Rectangle&gt;" class="cls-2" d="M254.85 24.58h28.75v14.75h-28.75z"/><path id="_Path_38" data-name="&lt;Path&gt;" class="cls-4" d="M246.96 39.34h44.53V165.1h-44.53z"/><path id="_Rectangle_23" data-name="&lt;Rectangle&gt;" class="cls-8" d="M268.63 0h1.19v27.05h-1.19z"/><path id="_Path_39" data-name="&lt;Path&gt;" class="cls-14" d="M246.96 39.33h22.26v125.76h-22.26z"/><path id="_Rectangle_24" data-name="&lt;Rectangle&gt;" class="cls-14" d="M249.12 19.37h20.14v19.97h-20.14z"/><path id="_Path_40" data-name="&lt;Path&gt;" class="cls-4" d="M249.12 19.37v19.97h2.8v-17.2h34.61v17.2h2.8V19.37h-40.21z"/><g id="_Group_19" data-name="&lt;Group&gt;"><path id="_Rectangle_25" data-name="&lt;Rectangle&gt;" class="cls-8" d="M264.46 16.55h2.38v22.79h-2.38z"/><path id="_Rectangle_26" data-name="&lt;Rectangle&gt;" class="cls-8" d="M271.62 16.55H274v22.79h-2.38z"/></g></g><g id="_Group_20" data-name="&lt;Group&gt;"><path id="_Path_41" data-name="&lt;Path&gt;" class="cls-2" d="M177.87 169.7h31.07V57.63s-6.3 19.53-31.07 29.14z"/><path id="_Rectangle_27" data-name="&lt;Rectangle&gt;" class="cls-8" d="M192.81 46.66H194v32.05h-1.19z"/><g id="_Group_21" data-name="&lt;Group&gt;" class="cls-5"><path id="_Path_42" data-name="&lt;Path&gt;" class="cls-6" d="M177.87 86.77v82.93h15.54V78a59.78 59.78 0 0 1-15.54 8.77z"/></g></g><g id="_Group_22" data-name="&lt;Group&gt;"><path id="_Rectangle_28" data-name="&lt;Rectangle&gt;" class="cls-8" d="M231.48 99.1h34.9v71.6h-34.9z"/><path id="_Rectangle_29" data-name="&lt;Rectangle&gt;" class="cls-10" d="M231.48 99.1h17.45v71.6h-17.45z"/></g><g id="_Group_23" data-name="&lt;Group&gt;"><path id="_Rectangle_30" data-name="&lt;Rectangle&gt;" class="cls-4" d="M347.45 102.12h43.93v65.59h-43.93z"/><path id="_Rectangle_31" data-name="&lt;Rectangle&gt;" class="cls-4" d="M358.4 96.75h22.03v5.36H358.4z"/><g id="_Group_24" data-name="&lt;Group&gt;"><path id="_Path_43" data-name="&lt;Path&gt;" class="cls-8" d="M375.45 83v-.53h-.59v14.3h.59V85.92c1.06-.13 2.72.57 3.86.21v-2.89c-1.12.49-2.86-.35-3.86-.24z"/><path id="_Path_44" data-name="&lt;Path&gt;" class="cls-8" d="M364 83v-.53h-.59v14.3h.59V85.92c1.06-.13 2.72.57 3.86.21v-2.89c-1.12.49-2.86-.35-3.86-.24z"/></g><path id="_Path_45" data-name="&lt;Path&gt;" opacity=".11" fill="#272727" d="M358.4 96.75v5.37h-10.95v65.58h21.96V96.75H358.4z"/></g><g id="_Group_25" data-name="&lt;Group&gt;"><path id="_Path_46" data-name="&lt;Path&gt;" class="cls-4" d="M348.8 116.36l-6.92-3.44h-6.71l-6.92 3.44h-3.07v34.58h26.69v-34.58h-3.07z"/><g id="_Group_26" data-name="&lt;Group&gt;" opacity=".15"><path id="_Path_47" data-name="&lt;Path&gt;" class="cls-6" d="M338.53 112.92h-3.36l-6.92 3.44h-3.07v34.58h13.35v-38.02z"/></g></g><g id="_Group_27" data-name="&lt;Group&gt;"><path id="_Rectangle_32" data-name="&lt;Rectangle&gt;" class="cls-4" d="M113.84 90.31h24.27v79.39h-24.27z"/><g id="_Group_28" data-name="&lt;Group&gt;"><path id="_Rectangle_33" data-name="&lt;Rectangle&gt;" class="cls-8" d="M135.93 31.59h1.19v58.72h-1.19z"/><path id="_Rectangle_34" data-name="&lt;Rectangle&gt;" class="cls-8" d="M114.84 31.59h1.19v58.72h-1.19z"/><path id="_Rectangle_35" data-name="&lt;Rectangle&gt;" class="cls-8" transform="rotate(90 125.98 56.94)" d="M125.38 45.8h1.19v22.27h-1.19z"/><path id="_Rectangle_36" data-name="&lt;Rectangle&gt;" class="cls-8" transform="rotate(90 125.975 46.605)" d="M125.38 35.47h1.19v22.27h-1.19z"/><g id="_Group_29" data-name="&lt;Group&gt;"><path id="_Path_48" data-name="&lt;Path&gt;" class="cls-8" d="M127.55 56.34l9.57-9.56-.84-.84-10.3 10.3-10.3-10.3-.84.84 9.56 9.56h3.15z"/></g><path id="_Rectangle_37" data-name="&lt;Rectangle&gt;" class="cls-8" transform="rotate(90 125.98 67.34)" d="M125.38 56.2h1.19v22.27h-1.19z"/><g id="_Group_30" data-name="&lt;Group&gt;"><path id="_Path_49" data-name="&lt;Path&gt;" class="cls-8" d="M127.55 66.75l9.57-9.57-.84-.84-10.3 10.3-10.3-10.3-.84.84 9.56 9.57h3.15z"/></g><path id="_Rectangle_38" data-name="&lt;Rectangle&gt;" class="cls-8" transform="rotate(90 125.98 77.74)" d="M125.38 66.61h1.19v22.27h-1.19z"/><g id="_Group_31" data-name="&lt;Group&gt;"><path id="_Path_50" data-name="&lt;Path&gt;" class="cls-8" d="M127.55 77.15l9.57-9.56-.84-.84-10.3 10.29-10.3-10.29-.84.84 9.56 9.56h3.15z"/></g><path id="_Rectangle_39" data-name="&lt;Rectangle&gt;" class="cls-8" transform="rotate(90 125.975 88.145)" d="M125.38 77.01h1.19v22.27h-1.19z"/><g id="_Group_32" data-name="&lt;Group&gt;"><path id="_Path_51" data-name="&lt;Path&gt;" class="cls-8" d="M127.55 87.55l9.57-9.56-.84-.84-10.3 10.3-10.3-10.3-.84.84 9.56 9.56h3.15z"/></g></g><path id="_Rectangle_40" data-name="&lt;Rectangle&gt;" opacity=".16" fill="#272727" d="M113.84 90.31h12.14v79.39h-12.14z"/></g><g id="_Group_33" data-name="&lt;Group&gt;"><path id="_Rectangle_41" data-name="&lt;Rectangle&gt;" class="cls-8" d="M309.94 135.2h48.46v35.5h-48.46z"/><path id="_Rectangle_42" data-name="&lt;Rectangle&gt;" class="cls-12" d="M309.94 135.2h24.23v35.5h-24.23z"/></g><g id="_Group_34" data-name="&lt;Group&gt;"><path id="_Path_52" data-name="&lt;Path&gt;" class="cls-4" d="M422.06 167.09H398V89.47s0-3 12-3c11.67 0 12 3 12 3z"/><g id="_Group_35" data-name="&lt;Group&gt;" opacity=".19"><path id="_Path_53" data-name="&lt;Path&gt;" class="cls-6" d="M410 167.09h-12V89.47s0-3 12-3z"/></g></g><g id="_Group_36" data-name="&lt;Group&gt;"><path id="_Rectangle_43" data-name="&lt;Rectangle&gt;" class="cls-8" d="M416.15 130.39h45.73v40.31h-45.73z"/><path id="_Rectangle_44" data-name="&lt;Rectangle&gt;" class="cls-7" d="M416.15 130.39h22.87v40.31h-22.87z"/></g><path id="_Path_54" data-name="&lt;Path&gt;" class="cls-4" d="M750.9 170.31h145.4l-10-21.91H760.9l-10 21.91z"/><g id="_Group_37" data-name="&lt;Group&gt;"><path id="_Rectangle_45" data-name="&lt;Rectangle&gt;" class="cls-2" d="M35.16 119.17h40.92v47.54H35.16z"/><path id="_Rectangle_46" data-name="&lt;Rectangle&gt;" opacity=".17" fill="#272727" d="M35.16 119.17h20.46v47.54H35.16z"/></g><g id="_Group_38" data-name="&lt;Group&gt;"><path id="_Rectangle_47" data-name="&lt;Rectangle&gt;" class="cls-4" d="M73.67 111.13h31.29v59.57H73.67z"/><path id="_Rectangle_48" data-name="&lt;Rectangle&gt;" class="cls-3" d="M73.67 111.13h15.64v59.57H73.67z"/></g><g id="_Group_39" data-name="&lt;Group&gt;"><path id="_Rectangle_49" data-name="&lt;Rectangle&gt;" class="cls-8" d="M55.62 140.92h25.87v29.78H55.62z"/><path id="_Rectangle_50" data-name="&lt;Rectangle&gt;" class="cls-3" d="M55.62 140.92h12.94v29.4H55.62z"/></g><g id="_Group_40" data-name="&lt;Group&gt;"><path id="_Rectangle_51" data-name="&lt;Rectangle&gt;" class="cls-2" d="M391.37 135.2h19.25v35.5h-19.25z"/><path id="_Rectangle_52" data-name="&lt;Rectangle&gt;" class="cls-12" d="M391.37 135.2H401v35.5h-9.63z"/></g><path id="_Path_55" data-name="&lt;Path&gt;" class="cls-4" d="M638.68 170.31h139.93l-10-18.2H648.68l-10 18.2z"/><path id="_Path_56" data-name="&lt;Path&gt;" class="cls-2" d="M909.28 170.31H544.27l16.85-13.16h338.16l10 13.16z"/><g id="_Group_41" data-name="&lt;Group&gt;"><path id="_Rectangle_53" data-name="&lt;Rectangle&gt;" class="cls-22" d="M35.71 150.28h5.32v22.44h-5.32z"/><path id="_Rectangle_54" data-name="&lt;Rectangle&gt;" class="cls-22" d="M56.36 152.51h5.32v22.44h-5.32z"/><path id="_Rectangle_55" data-name="&lt;Rectangle&gt;" class="cls-22" d="M84.16 152.51h5.32v22.44h-5.32z"/><path id="_Rectangle_56" data-name="&lt;Rectangle&gt;" class="cls-22" d="M105.84 152.51h5.32v22.44h-5.32z"/><path id="_Rectangle_57" data-name="&lt;Rectangle&gt;" class="cls-22" d="M113.37 150.49h5.32v22.44h-5.32z"/><path id="_Rectangle_58" data-name="&lt;Rectangle&gt;" class="cls-22" d="M156 153.87h5.32v22.44H156z"/><path id="_Rectangle_59" data-name="&lt;Rectangle&gt;" class="cls-22" d="M174.06 150.66h5.32v22.44h-5.32z"/><path id="_Rectangle_60" data-name="&lt;Rectangle&gt;" class="cls-22" d="M193.1 153.87h5.32v22.44h-5.32z"/><path id="_Rectangle_61" data-name="&lt;Rectangle&gt;" class="cls-22" d="M229.01 151.87h5.32v22.44h-5.32z"/><path id="_Rectangle_62" data-name="&lt;Rectangle&gt;" class="cls-22" d="M263.87 153.48h5.32v22.44h-5.32z"/><path id="_Rectangle_63" data-name="&lt;Rectangle&gt;" class="cls-22" d="M292.9 154.42h5.32v22.44h-5.32z"/><path id="_Rectangle_64" data-name="&lt;Rectangle&gt;" class="cls-22" d="M385.99 153.87h5.32v22.44h-5.32z"/><path id="_Rectangle_65" data-name="&lt;Rectangle&gt;" class="cls-22" d="M399.62 163.05h5.32v22.44h-5.32z"/><path id="_Rectangle_66" data-name="&lt;Rectangle&gt;" class="cls-22" d="M413.49 153.87h5.32v22.44h-5.32z"/><path id="_Rectangle_67" data-name="&lt;Rectangle&gt;" class="cls-22" d="M458.11 151.66h5.32v22.44h-5.32z"/><path id="_Rectangle_68" data-name="&lt;Rectangle&gt;" class="cls-22" d="M470.49 159.09h5.32v22.44h-5.32z"/><path id="_Rectangle_69" data-name="&lt;Rectangle&gt;" class="cls-22" d="M505.01 151.66h5.32v22.44h-5.32z"/><path id="_Rectangle_70" data-name="&lt;Rectangle&gt;" class="cls-22" d="M525.9 154.42h5.32v22.44h-5.32z"/><path id="_Rectangle_71" data-name="&lt;Rectangle&gt;" class="cls-22" d="M541.85 151.66h5.32v22.44h-5.32z"/></g><g id="_Group_42" data-name="&lt;Group&gt;"><ellipse id="_Path_57" data-name="&lt;Path&gt;" class="cls-23" cx="41.03" cy="146.19" rx="14.59" ry="11.99"/><ellipse id="_Path_58" data-name="&lt;Path&gt;" class="cls-23" cx="59.02" cy="153.12" rx="9.53" ry="8.76"/><ellipse id="_Path_59" data-name="&lt;Path&gt;" class="cls-23" cx="92.64" cy="153.87" rx="12.47" ry="11.12"/><ellipse id="_Path_60" data-name="&lt;Path&gt;" class="cls-23" cx="116.03" cy="148.89" rx="15.82" ry="11.99"/><ellipse id="_Path_61" data-name="&lt;Path&gt;" class="cls-23" cx="158.66" cy="155.62" rx="16.95" ry="13.69"/><ellipse id="_Path_62" data-name="&lt;Path&gt;" class="cls-23" cx="172.06" cy="151.47" rx="9.97" ry="9.41"/><ellipse id="_Path_63" data-name="&lt;Path&gt;" class="cls-23" cx="195.76" cy="157.72" rx="13.18" ry="11"/><ellipse id="_Path_64" data-name="&lt;Path&gt;" class="cls-23" cx="182.58" cy="153.48" rx="9.77" ry="9"/><ellipse id="_Path_65" data-name="&lt;Path&gt;" class="cls-23" cx="236.51" cy="156.5" rx="11.94" ry="10.3"/><ellipse id="_Path_66" data-name="&lt;Path&gt;" class="cls-23" cx="266.53" cy="154.82" rx="15.46" ry="12.88"/><ellipse id="_Path_67" data-name="&lt;Path&gt;" class="cls-23" cx="224.56" cy="156.82" rx="7.12" ry="7.27"/><ellipse id="_Path_68" data-name="&lt;Path&gt;" class="cls-23" cx="108.5" cy="159.21" rx="10.48" ry="9.5"/><ellipse id="_Path_69" data-name="&lt;Path&gt;" class="cls-23" cx="80.25" cy="155.9" rx="9.24" ry="9.19"/><ellipse id="_Path_70" data-name="&lt;Path&gt;" class="cls-23" cx="289.58" cy="159.42" rx="10.06" ry="9.22"/><ellipse id="_Path_71" data-name="&lt;Path&gt;" class="cls-23" cx="302.32" cy="159.42" rx="7.95" ry="7.48"/><ellipse id="_Path_72" data-name="&lt;Path&gt;" class="cls-23" cx="388.65" cy="154.9" rx="9.35" ry="8.19"/><ellipse id="_Path_73" data-name="&lt;Path&gt;" class="cls-23" cx="402.28" cy="158.88" rx="10.91" ry="8.39"/><ellipse id="_Path_74" data-name="&lt;Path&gt;" class="cls-23" cx="416.15" cy="153.82" rx="14.79" ry="12.41"/><ellipse id="_Path_75" data-name="&lt;Path&gt;" class="cls-23" cx="544.51" cy="149.98" rx="13.54" ry="11.9"/><ellipse id="_Path_76" data-name="&lt;Path&gt;" class="cls-23" cx="528.47" cy="157.06" rx="11.94" ry="9.65"/><ellipse id="_Path_77" data-name="&lt;Path&gt;" class="cls-23" cx="507.67" cy="149.28" rx="18.23" ry="15.37"/><ellipse id="_Path_78" data-name="&lt;Path&gt;" class="cls-23" cx="460.77" cy="152.06" rx="12.38" ry="9.82"/><ellipse id="_Path_79" data-name="&lt;Path&gt;" class="cls-23" cx="473.15" cy="159.25" rx="11.27" ry="9.98"/><ellipse id="_Path_80" data-name="&lt;Path&gt;" class="cls-23" cx="30.73" cy="148.83" rx="10.3" ry="9.05"/></g></svg>