<?xml version="1.0" encoding="UTF-8"?>
<svg width="30px" height="22px" viewBox="0 0 30 22" version="1.1" xmlns="http://www.w3.org/2000/svg" xmlns:xlink="http://www.w3.org/1999/xlink">
    <!-- Generator: Sketch 51.2 (57519) - http://www.bohemiancoding.com/sketch -->
    <title>mail icon</title>
    <desc>Created with Sketch.</desc>
    <defs></defs>
    <g id="60-user-list" stroke="none" stroke-width="1" fill="none" fill-rule="evenodd">
        <g id="60.20-user-page" transform="translate(-1170.000000, -173.000000)" fill="#40D5BB" fill-rule="nonzero">
            <g id="Group-4" transform="translate(1159.000000, 173.000000)">
                <path d="M13,2 L13,20 L39,20 L39,2 L13,2 Z M13,0 L39,0 C40.1045695,-2.02906125e-16 41,0.8954305 41,2 L41,20 C41,21.1045695 40.1045695,22 39,22 L13,22 C11.8954305,22 11,21.1045695 11,20 L11,2 C11,0.8954305 11.8954305,2.02906125e-16 13,0 Z M12.0899934,2.60900233 L13.3909977,1.08999344 L25.3554428,11.3373289 C25.7364407,11.6636469 26.300246,11.6571899 26.6736706,11.3222318 L38.6494848,0.580050895 L39.9849362,2.0688657 L28.009122,12.8110466 C26.8888481,13.8159207 25.1974323,13.8352917 24.0544386,12.8563378 L12.0899934,2.60900233 Z M13.0663842,21.4126546 L11.5873454,20.0663842 L21.9314445,8.70215585 L23.4104833,10.0484263 L13.0663842,21.4126546 Z M28.5877411,9.92567059 L30.0743294,8.58774112 L40.4122589,20.0743294 L38.9256706,21.4122589 L28.5877411,9.92567059 Z" id="mail-icon"></path>
            </g>
        </g>
    </g>
</svg>