<?xml version="1.0" encoding="UTF-8"?>
<svg width="40px" height="40px" viewBox="0 0 40 40" version="1.1" xmlns="http://www.w3.org/2000/svg" xmlns:xlink="http://www.w3.org/1999/xlink">
    <!-- Generator: Sketch 51.2 (57519) - http://www.bohemiancoding.com/sketch -->
    <title>icons / eye</title>
    <desc>Created with Sketch.</desc>
    <defs>
        <path d="M28.4869872,20.1736781 C28.4869872,15.4856755 24.6866404,11.6853287 19.999773,11.6853287 C15.3117705,11.6853287 11.5114236,15.4856755 11.5114236,20.1736781 C11.5114236,24.8605455 15.3117705,28.6620274 19.999773,28.6620274 C24.6866404,28.6620274 28.4869872,24.8605455 28.4869872,20.1736781 Z M24.2702822,20.1736781 C24.2702822,17.8149204 22.3576226,15.9022608 20,15.9022608 C17.6401072,15.9022608 15.7285827,17.8149204 15.7285827,20.1736781 C15.7285827,22.5324358 17.6401072,24.4450954 20,24.4450954 C22.3576226,24.4450954 24.2702822,22.5324358 24.2702822,20.1736781 Z M19.9994324,9 C12.6257607,9 4.71064165,13.6255715 2,20.1740186 C4.71064165,26.7201955 12.6257607,31.5875453 19.9994324,31.5875453 C27.3731042,31.5875453 35.2882232,26.7201955 38,20.1740186 C35.2882232,13.6255715 27.3731042,9 19.9994324,9 Z" id="path-1"></path>
    </defs>
    <g id="icons-/-eye" stroke="none" stroke-width="1" fill="none" fill-rule="evenodd">
        <mask id="mask-2" fill="white">
            <use xlink:href="#path-1"></use>
        </mask>
        <g id="Combined-Shape"></g>
        <g id="color-/-Cool-Gray-40" mask="url(#mask-2)" fill="#047CC0">
            <rect id="fill" x="0" y="0" width="88" height="88"></rect>
        </g>
    </g>
</svg>