<?xml version="1.0" encoding="UTF-8"?>
<svg width="447px" height="73px" viewBox="0 0 447 73" version="1.1" xmlns="http://www.w3.org/2000/svg" xmlns:xlink="http://www.w3.org/1999/xlink">
    <!-- Generator: Sketch 45.1 (43504) - http://www.bohemiancoding.com/sketch -->
    <title>boomerang</title>
    <desc>Created with Sketch.</desc>
    <defs></defs>
    <g id="11-Marketing-Website" stroke="none" stroke-width="1" fill="none" fill-rule="evenodd">
        <g id="11.10.00-Boomerang" transform="translate(-496.000000, -91.000000)">
            <g id="header">
                <g id="boomerang" transform="translate(482.000000, 80.000000)">
                    <rect id="bounding" x="0" y="0" width="476" height="88"></rect>
                    <path d="M98.1880044,47.7440964 C98.1880044,45.9660723 97.9605588,44.2394699 97.5056674,42.5632289 C97.0502483,40.8864578 96.3673836,39.4005301 95.4576009,38.1059759 C94.5472905,36.8098313 93.4100621,35.7702651 92.0443326,34.9814458 C90.6791308,34.1942169 89.111286,33.8008675 87.3418537,33.8008675 C83.7011397,33.8008675 80.9570155,35.0699759 79.1121197,37.6103133 C77.2656408,40.1506506 76.3437206,43.5285783 76.3437206,47.7440964 C76.3437206,49.7256867 76.5827761,51.5673253 77.0640532,53.2684819 C77.5437472,54.9701687 78.2646075,56.4301205 79.2261064,57.6493976 C80.1860222,58.8686747 81.3364435,59.8340241 82.6773703,60.5449157 C84.0161863,61.2568675 85.5708381,61.610988 87.3418537,61.610988 C89.3134013,61.610988 90.9820399,61.2054458 92.3477694,60.3917108 C93.7129712,59.5806265 94.8375344,58.5251566 95.7230421,57.2306024 C96.6069667,55.9344578 97.2396984,54.4617831 97.6191264,52.8104578 C97.9985543,51.1601928 98.1880044,49.471759 98.1880044,47.7440964 L98.1880044,47.7440964 Z M68,13 L76.6471574,13 L76.6471574,33.1148916 L76.7991397,33.1148916 C77.4054856,32.1506024 78.1379557,31.2854458 78.998133,30.5247229 C79.8577827,29.7624096 80.8060887,29.1151325 81.8425233,28.5813012 C82.8784302,28.0474699 83.9665809,27.6419277 85.104337,27.3620241 C86.2415654,27.0831807 87.3666563,26.9432289 88.479082,26.9432289 C91.5630554,26.9432289 94.2554634,27.4897831 96.5573614,28.5813012 C98.8576763,29.6738795 100.766953,31.172 102.28361,33.0767229 C103.800794,34.9814458 104.93855,37.2037108 105.696878,39.7440482 C106.455734,42.2843855 106.834634,45.0001928 106.834634,47.896241 C106.834634,50.5378313 106.493202,53.1036145 105.810865,55.5925301 C105.128,58.0809157 104.091038,60.2777349 102.701033,62.182988 C101.309446,64.0877108 99.5532062,65.6112771 97.4291486,66.7536867 C95.3056186,67.8976867 92.8031885,68.4686265 89.9202749,68.4686265 C88.6046785,68.4686265 87.278,68.3800964 85.9386563,68.2014458 C84.5977295,68.0233253 83.3217118,67.6808675 82.1084922,67.1735422 C80.894745,66.6662169 79.7944568,66.0056867 78.8092106,65.1924819 C77.8229091,64.3808675 77.0001996,63.3137349 76.3437206,61.9926747 L76.1922661,61.9926747 L76.1922661,67.4020241 L68,67.4020241 L68,13 Z M132.091606,61.6109349 C134.012493,61.6109349 135.681131,61.2053928 137.097522,60.3916578 C138.512329,59.5805735 139.675943,58.5129108 140.586253,57.1918506 C141.496564,55.8723807 142.166235,54.3859229 142.596324,52.7351277 C143.025357,51.0848627 143.241193,49.3953687 143.241193,47.667706 C143.241193,45.9909349 143.025357,44.314694 142.596324,42.638453 C142.166235,40.9632723 141.496564,39.4773446 140.586253,38.1812 C139.675943,36.8866458 138.512329,35.8322361 137.097522,35.0200916 C135.681131,34.2074169 134.012493,33.8008145 132.091606,33.8008145 C130.169136,33.8008145 128.500497,34.2074169 127.085162,35.0200916 C125.6693,35.8322361 124.506741,36.8866458 123.596431,38.1812 C122.686648,39.4773446 122.015393,40.9632723 121.58636,42.638453 C121.156271,44.314694 120.94149,45.9909349 120.94149,47.667706 C120.94149,49.3953687 121.156271,51.0848627 121.58636,52.7351277 C122.015393,54.3859229 122.686648,55.8723807 123.596431,57.1918506 C124.506741,58.5129108 125.6693,59.5805735 127.085162,60.3916578 C128.500497,61.2053928 130.169136,61.6109349 132.091606,61.6109349 M132.091606,68.4685735 C128.955388,68.4685735 126.162187,67.9469349 123.710417,66.9068386 C121.257065,65.8656819 119.184196,64.4301157 117.490754,62.6017301 C115.79573,60.7733446 114.506519,58.5897783 113.622595,56.049441 C112.737087,53.5091036 112.294861,50.7153687 112.294861,47.667706 C112.294861,44.6714651 112.737087,41.903706 113.622595,39.3623084 C114.506519,36.8230313 115.79573,34.6384048 117.490754,32.8100193 C119.184196,30.9816337 121.257065,29.5471277 123.710417,28.5049108 C126.162187,27.4648145 128.955388,26.9431759 132.091606,26.9431759 C135.22624,26.9431759 138.019442,27.4648145 140.472267,28.5049108 C142.925091,29.5471277 144.997433,30.9816337 146.692457,32.8100193 C148.385371,34.6384048 149.675109,36.8230313 150.560617,39.3623084 C151.444541,41.903706 151.887295,44.6714651 151.887295,47.667706 C151.887295,50.7153687 151.444541,53.5091036 150.560617,56.049441 C149.675109,58.5897783 148.385371,60.7733446 146.692457,62.6017301 C144.997433,64.4301157 142.925091,65.8656819 140.472267,66.9068386 C138.019442,67.9469349 135.22624,68.4685735 132.091606,68.4685735 M177.06912,61.6109349 C178.990007,61.6109349 180.658646,61.2053928 182.075036,60.3916578 C183.489843,59.5805735 184.653457,58.5129108 185.563768,57.1918506 C186.474078,55.8723807 187.14375,54.3859229 187.573839,52.7351277 C188.002872,51.0848627 188.218708,49.3953687 188.218708,47.667706 C188.218708,45.9909349 188.002872,44.314694 187.573839,42.638453 C187.14375,40.9632723 186.474078,39.4773446 185.563768,38.1812 C184.653457,36.8866458 183.489843,35.8322361 182.075036,35.0200916 C180.658646,34.2074169 178.990007,33.8008145 177.06912,33.8008145 C175.14665,33.8008145 173.478012,34.2074169 172.062677,35.0200916 C170.646814,35.8322361 169.484255,36.8866458 168.573945,38.1812 C167.664162,39.4773446 166.992907,40.9632723 166.563874,42.638453 C166.133785,44.314694 165.919005,45.9909349 165.919005,47.667706 C165.919005,49.3953687 166.133785,51.0848627 166.563874,52.7351277 C166.992907,54.3859229 167.664162,55.8723807 168.573945,57.1918506 C169.484255,58.5129108 170.646814,59.5805735 172.062677,60.3916578 C173.478012,61.2053928 175.14665,61.6109349 177.06912,61.6109349 M177.06912,68.4685735 C173.932903,68.4685735 171.139701,67.9469349 168.687932,66.9068386 C166.234579,65.8656819 164.16171,64.4301157 162.468269,62.6017301 C160.773244,60.7733446 159.484034,58.5897783 158.600109,56.049441 C157.714601,53.5091036 157.272375,50.7153687 157.272375,47.667706 C157.272375,44.6714651 157.714601,41.903706 158.600109,39.3623084 C159.484034,36.8230313 160.773244,34.6384048 162.468269,32.8100193 C164.16171,30.9816337 166.234579,29.5471277 168.687932,28.5049108 C171.139701,27.4648145 173.932903,26.9431759 177.06912,26.9431759 C180.203754,26.9431759 182.996956,27.4648145 185.449781,28.5049108 C187.902606,29.5471277 189.974947,30.9816337 191.669972,32.8100193 C193.362885,34.6384048 194.652624,36.8230313 195.538131,39.3623084 C196.422056,41.903706 196.86481,44.6714651 196.86481,47.667706 C196.86481,50.7153687 196.422056,53.5091036 195.538131,56.049441 C194.652624,58.5897783 193.362885,60.7733446 191.669972,62.6017301 C189.974947,64.4301157 187.902606,65.8656819 185.449781,66.9068386 C182.996956,67.9469349 180.203754,68.4685735 177.06912,68.4685735 M204.069613,28.0093542 L212.261352,28.0093542 L212.261352,33.4955711 L212.489325,33.4955711 C213.145276,32.5312819 213.853999,31.6422699 214.612855,30.8285349 C215.371183,30.0169205 216.217112,29.3314747 217.153281,28.7716675 C218.088394,28.2129205 219.163352,27.7686795 220.377099,27.4384145 C221.590318,27.1081494 222.981378,26.9432819 224.548695,26.9432819 C226.925001,26.9432819 229.137715,27.4771133 231.185782,28.5431855 C233.233848,29.6103181 234.686123,31.2616434 235.546828,33.4955711 C237.012824,31.4652096 238.706265,29.8642458 240.628735,28.6948 C242.549622,27.5269446 244.951786,26.9432819 247.8347,26.9432819 C251.97991,26.9432819 255.203729,27.960053 257.504571,29.9909446 C259.805414,32.0223663 260.955835,35.4268 260.955835,40.2010651 L260.955835,67.4020771 L252.309733,67.4020771 L252.309733,44.3911373 C252.309733,42.8177398 252.258545,41.3821735 252.157751,40.0860289 C252.055902,38.7914747 251.76513,37.6739807 251.285436,36.733547 C250.804159,35.7941735 250.083298,35.0700289 249.12391,34.5627036 C248.162939,34.0553783 246.848398,33.8009205 245.17976,33.8009205 C242.246185,33.8009205 240.122655,34.7148482 238.808114,36.5432337 C237.492518,38.3726795 236.836039,40.9633783 236.836039,44.3148 L236.836039,67.4020771 L228.189409,67.4020771 L228.189409,42.105788 C228.189409,39.3624145 227.69705,37.2933542 226.710749,35.8959566 C225.724447,34.4996193 223.915964,33.8009205 221.287409,33.8009205 C220.174984,33.8009205 219.100026,34.0294024 218.063591,34.4863663 C217.026629,34.9433301 216.116846,35.6038602 215.333715,36.4679566 C214.548474,37.3315229 213.917325,38.3975952 213.437103,39.6672337 C212.955826,40.9379325 212.716771,42.3856916 212.716771,44.011041 L212.716771,67.4020771 L204.069613,67.4020771 L204.069613,28.0093542 Z M296.983969,44.2394169 C296.881592,42.8669349 296.591348,41.5469349 296.111654,40.2762361 C295.630377,39.008188 294.973898,37.9023566 294.139579,36.9619229 C293.305259,36.0225494 292.292572,35.2618265 291.105738,34.6765735 C289.916794,34.0939711 288.589588,33.8008145 287.123064,33.8008145 C285.606408,33.8008145 284.228013,34.0674651 282.989463,34.6002361 C281.749858,35.1335373 280.688093,35.8709349 279.804169,36.8097783 C278.918661,37.7507422 278.210993,38.8549831 277.680639,40.1246217 C277.149228,41.3953205 276.857929,42.766212 276.808324,44.2394169 L296.983969,44.2394169 Z M276.808324,49.9541157 C276.808324,51.4771518 277.022576,52.9514169 277.453193,54.3732 C277.881698,55.7955133 278.52604,57.0402361 279.386745,58.1063084 C280.246395,59.173441 281.332962,60.0242843 282.648031,60.6583084 C283.962572,61.2949831 285.530945,61.6109349 287.35051,61.6109349 C289.878798,61.6109349 291.9142,61.0665012 293.457242,59.9728627 C294.998173,58.8818747 296.14965,57.2438024 296.907978,55.0586458 L305.099716,55.0586458 C304.644297,57.1918506 303.859583,59.0971036 302.748213,60.7733446 C301.635259,62.4495855 300.29486,63.8591759 298.728599,65.0021157 C297.160226,66.1445253 295.402931,67.0086217 293.457242,67.5928145 C291.509441,68.1754169 289.474568,68.4685735 287.35051,68.4685735 C284.266537,68.4685735 281.535605,67.9596578 279.159299,66.9450072 C276.781938,65.9292964 274.771867,64.506453 273.129086,62.6780675 C271.485778,60.8486217 270.247228,58.6661157 269.412909,56.1247181 C268.57859,53.585441 268.161166,50.791706 268.161166,47.7440434 C268.161166,44.9513687 268.603392,42.2959952 269.488373,39.7821639 C270.372825,37.2672723 271.637233,35.0582602 273.281069,33.1535373 C274.923849,31.2482843 276.90859,29.737441 279.234763,28.6194169 C281.560408,27.5019229 284.190018,26.9431759 287.123064,26.9431759 C290.207038,26.9431759 292.975965,27.590453 295.428789,28.8865976 C297.881086,30.1811518 299.91596,31.8955614 301.534466,34.0292964 C303.152443,36.1625012 304.327667,38.6132482 305.061721,41.3820675 C305.794191,44.1508867 305.983641,47.0082361 305.630599,49.9541157 L276.808324,49.9541157 Z M312.228634,28.0093542 L320.344381,28.0093542 L320.344381,35.6287759 L320.496364,35.6287759 C320.748612,34.5627036 321.242027,33.5220771 321.975552,32.5047759 C322.707494,31.4901253 323.593002,30.5629446 324.629965,29.7237639 C325.665871,28.8861735 326.816293,28.2129205 328.081228,27.7055952 C329.344581,27.1982699 330.633792,26.9432819 331.949388,26.9432819 C332.959965,26.9432819 333.656022,26.969788 334.03545,27.0196193 C334.41435,27.0699807 334.805916,27.1214024 335.210674,27.1717639 L335.210674,35.5524386 C334.6038,35.4517157 333.984789,35.3621253 333.352585,35.2868482 C332.719326,35.2099807 332.10137,35.171812 331.494497,35.171812 C330.026918,35.171812 328.650106,35.4649687 327.360896,36.0475711 C326.071157,36.6328241 324.945011,37.4958602 323.985095,38.6382699 C323.024652,39.7822699 322.265796,41.1918602 321.710111,42.867041 C321.15337,44.5432819 320.875792,46.4745108 320.875792,48.6580771 L320.875792,67.4020771 L312.228634,67.4020771 L312.228634,28.0093542 Z M363.12248,47.667494 C361.806884,48.5326506 360.189434,49.0521687 358.268019,49.2302892 C356.345549,49.4084096 354.424662,49.6750602 352.503775,50.0297108 C351.593465,50.1829157 350.707957,50.3992048 349.849363,50.676988 C348.988658,50.9568916 348.229802,51.3385783 347.573323,51.820988 C346.915261,52.3039277 346.398099,52.9384819 346.018671,53.7257108 C345.639243,54.5129398 345.449793,55.4655663 345.449793,56.5830602 C345.449793,57.5473494 345.727372,58.3610843 346.284112,59.0205542 C346.839797,59.6810843 347.509469,60.2011325 348.294183,60.5833494 C349.077314,60.9634458 349.936964,61.2306265 350.873132,61.382241 C351.808245,61.5354458 352.65523,61.6107229 353.413558,61.6107229 C354.373474,61.6107229 355.410436,61.4850843 356.523389,61.2306265 C357.63476,60.9766988 358.684915,60.5446506 359.671216,59.9344819 C360.657518,59.3253735 361.478644,58.5513976 362.136179,57.6109639 C362.793185,56.6715904 363.12248,55.5159277 363.12248,54.144506 L363.12248,47.667494 Z M371.76911,58.6399277 C371.76911,59.706 371.907899,60.4683133 372.186533,60.9252771 C372.463057,61.382241 373.00766,61.6107229 373.817176,61.6107229 L374.726959,61.6107229 C375.080001,61.6107229 375.485815,61.5608916 375.940706,61.4591084 L375.940706,67.4775663 C375.63727,67.5793494 375.245176,67.6943855 374.764955,67.8210843 C374.284205,67.9467229 373.790791,68.061759 373.285766,68.1646024 C372.780214,68.2647952 372.274134,68.3416627 371.76911,68.3930843 C371.26303,68.4418554 370.832414,68.4683614 370.479372,68.4683614 C368.708884,68.4683614 367.243416,68.1131807 366.080857,67.4022892 C364.916715,66.6913976 364.158387,65.4472048 363.804817,63.6691807 C362.085518,65.3443614 359.975181,66.5636386 357.471695,67.3254217 C354.968737,68.0877349 352.55338,68.4683614 350.227735,68.4683614 C348.457247,68.4683614 346.764334,68.2266265 345.145828,67.7442169 C343.527323,67.2623373 342.099323,66.5514458 340.860773,65.611012 C339.621168,64.6716386 338.635394,63.4778072 337.902924,62.0295181 C337.168871,60.5833494 336.802635,58.8949157 336.802635,56.9636867 C336.802635,54.5251325 337.245389,52.5446024 338.130369,51.0199759 C339.014822,49.4958795 340.178436,48.3041687 341.619101,47.439012 C343.060294,46.5759759 344.677744,45.9530843 346.473562,45.5724578 C348.267797,45.1918313 350.076808,44.8997349 351.896902,44.6966988 C353.463691,44.3913494 354.955545,44.1761205 356.371935,44.0488916 C357.786742,43.9221928 359.037957,43.7059036 360.126108,43.4005542 C361.213203,43.0967952 362.072325,42.6276386 362.705057,41.9909639 C363.336733,41.3569398 363.653363,40.4043133 363.653363,39.1336145 C363.653363,38.0171807 363.387922,37.103253 362.857039,36.3913012 C362.326157,35.6804096 361.668094,35.1338554 360.884964,34.7532289 C360.10025,34.3715422 359.227935,34.1176145 358.268019,33.9909157 C357.307048,33.8652771 356.396737,33.8006024 355.537616,33.8006024 C353.110649,33.8006024 351.112188,34.308988 349.545398,35.3236386 C347.977553,36.3409398 347.092046,37.9143373 346.890986,40.0480723 L338.243828,40.0480723 C338.395811,37.5087952 339.002684,35.400506 340.064449,33.7242651 C341.126742,32.047494 342.478223,30.7025783 344.122059,29.6858072 C345.764839,28.6711566 347.622928,27.9602651 349.69738,27.5520723 C351.769722,27.1465301 353.89378,26.9429639 356.068498,26.9429639 C357.989385,26.9429639 359.885469,27.1465301 361.756751,27.5520723 C363.626977,27.9602651 365.308808,28.6197349 366.80119,29.5336627 C368.291988,30.4481205 369.493598,31.6286988 370.403908,33.076988 C371.313691,34.524747 371.76911,36.2895181 371.76911,38.3728916 L371.76911,58.6399277 Z M381.098341,28.0093542 L389.290079,28.0093542 L389.290079,33.8009205 L389.441533,33.9525349 C390.756075,31.7689687 392.475902,30.0556193 394.599959,28.8098361 C396.723489,27.5656434 399.074992,26.9432819 401.653414,26.9432819 C405.950607,26.9432819 409.338545,28.0607759 411.8167,30.2957639 C414.2938,32.5312819 415.533933,35.8837639 415.533933,40.3532096 L415.533933,67.4020771 L406.886775,67.4020771 L406.886775,42.638559 C406.784926,39.5415952 406.128447,37.2933542 404.9147,35.8959566 C403.700953,34.4996193 401.804868,33.8009205 399.225919,33.8009205 C397.759396,33.8009205 396.444855,34.0675711 395.282296,34.599812 C394.118682,35.1336434 393.13238,35.8705108 392.323919,36.8098843 C391.51493,37.7503181 390.882726,38.8550892 390.427835,40.1241976 C389.972944,41.3954265 389.745498,42.7414024 389.745498,44.1626554 L389.745498,67.4020771 L381.098341,67.4020771 L381.098341,28.0093542 Z M441.700476,60.5448096 C443.62189,60.5448096 445.252533,60.1509301 446.592933,59.3637012 C447.931749,58.5764723 449.019899,57.5342554 449.854219,56.2397012 C450.688538,54.9435566 451.295412,53.4719422 451.674839,51.8206169 C452.05374,50.1708819 452.243718,48.5063036 452.243718,46.8300627 C452.243718,45.1532916 452.040547,43.5284723 451.636844,41.9529542 C451.23103,40.3795566 450.613075,38.9816289 449.778755,37.7623518 C448.944436,36.5430747 447.856285,35.5787855 446.516941,34.8668337 C445.176542,34.1559422 443.570702,33.8007614 441.700476,33.8007614 C439.778533,33.8007614 438.160556,34.2073639 436.846542,35.0200386 C435.530946,35.8321831 434.469181,36.8865928 433.661247,38.181147 C432.851731,39.4772916 432.269132,40.9510265 431.91609,42.6012916 C431.561465,44.2526169 431.385208,45.8906892 431.385208,47.5155084 C431.385208,49.1419181 431.586795,50.7280386 431.992081,52.2775807 C432.395784,53.8271229 433.015851,55.2107373 433.85017,56.4300145 C434.685017,57.6492916 435.746782,58.6400867 437.035992,59.4018699 C438.325203,60.1631229 439.880383,60.5448096 441.700476,60.5448096 L441.700476,60.5448096 Z M460.890347,65.3439904 C460.890347,71.2877012 459.233318,75.7195084 455.922427,78.6404723 C452.609953,81.560906 447.844148,83.0219181 441.625012,83.0219181 C439.652937,83.0219181 437.667669,82.8188819 435.670791,82.4117494 C433.672857,82.005147 431.852236,81.3191711 430.209456,80.3548819 C428.566148,79.3895325 427.187753,78.1188337 426.075855,76.544906 C424.963429,74.9704482 424.305367,73.0402795 424.10378,70.7549301 L432.750409,70.7549301 C433.002658,71.973147 433.433274,72.9639422 434.03962,73.7262554 C434.646494,74.4880386 435.367354,75.083894 436.201673,75.5159422 C437.035992,75.9479904 437.957913,76.2268337 438.9706,76.3551229 C439.981176,76.4807614 441.042941,76.544906 442.155367,76.544906 C445.644627,76.544906 448.197718,75.6813398 449.816223,73.9547373 C451.434201,72.2265446 452.243718,69.738159 452.243718,66.4879904 L452.243718,60.4684723 L452.091735,60.4684723 C450.877988,62.6530988 449.221487,64.3547855 447.123815,65.5724723 C445.025088,66.7922795 442.762241,67.4024482 440.335274,67.4024482 C437.199584,67.4024482 434.533035,66.8564241 432.333514,65.7643759 C430.133992,64.6717976 428.313372,63.1736771 426.872179,61.2689542 C425.431514,59.3637012 424.380831,57.1668819 423.724352,54.6779663 C423.067345,52.1890506 422.738578,49.5220145 422.738578,46.6768578 C422.738578,44.037388 423.142808,41.5219663 423.952325,39.1337735 C424.760259,36.746641 425.923873,34.6516048 427.441057,32.8481349 C428.958241,31.0451952 430.816329,29.610159 433.015851,28.5430265 C435.215372,27.4769542 437.705664,26.9431229 440.487256,26.9431229 C442.964356,26.9431229 445.239341,27.4647614 447.313793,28.5048578 C449.386134,29.5470747 450.97931,31.185147 452.091735,33.4190747 L452.243718,33.4190747 L452.243718,28.0091952 L460.890347,28.0091952 L460.890347,65.3439904 Z" id="Combined-Shape" fill="#FBFCFC"></path>
                    <path d="M28.111125,68.7822404 C28.111125,68.7822404 31.4982747,64.546062 35.7577847,58.8372343 C39.7733695,53.4565426 45.213687,47.2029351 44.7704252,39.549069 C44.3329336,31.9987692 37.6708922,25.0281236 33.1118526,20.1716042 C28.1467957,14.8833825 24.8026608,11.6633162 24.8026608,11.6633162 C24.8026608,11.6633162 29.871058,9.82765652 34.9168987,12.9837865 C42.5336579,17.7473075 55.3651694,29.4687926 55.914919,38.9567332 C56.5444032,49.8264384 44.1057947,62.9201769 36.4192677,68.214211 C32.9518587,70.6020481 28.111125,68.7822404 28.111125,68.7822404 Z M17.1312894,60.4934302 C17.1312894,60.4934302 19.5421611,57.4896108 22.5745608,53.4416318 C25.4331658,49.6259837 29.3059265,45.1914956 28.9906586,39.764418 C28.6790998,34.410708 23.9368358,29.4674314 20.6909017,26.0239379 C17.1567228,22.2742143 14.7760532,19.9907799 14.7760532,19.9907799 C14.7760532,19.9907799 18.3844128,18.6893021 21.9763467,20.9270146 C27.3984236,24.3051152 36.532713,32.6169228 36.9237511,39.3444149 C37.3720143,47.0522687 28.517492,56.3369947 23.045608,60.0904399 C20.5775113,61.7837434 17.1312894,60.4934302 17.1312894,60.4934302 Z" id="Combined-Shape" fill="#40D5BB"></path>
                </g>
            </g>
        </g>
    </g>
</svg>